Coordinates
version=1
nRows=176
nColumns=4
inDegrees=yes

Units are S.I. units (second, meters, Newtons, ...)
If the header above contains a line with 'inDegrees', this indicates whether rotational values are in degrees (yes) or radians (no).

endheader
time	baseangle	kneeangle	bladeangle
      4.50000000	    -30.27216377	     -7.85634122	     38.12871050
      4.52000000	    -29.61975689	     -8.78527447	     38.40521455
      4.54000000	    -28.96592529	     -9.71176882	     38.67785513
      4.56000000	    -28.31502619	    -10.62958683	     38.94476370
      4.58000000	    -27.66460454	    -11.54214474	     39.20689102
      4.60000000	    -27.01447904	    -12.44962564	     39.46424192
      4.62000000	    -26.36220346	    -13.35534345	     39.71768051
      4.64000000	    -25.71212690	    -14.25318072	     39.96544777
      4.66000000	    -25.06180226	    -15.14645778	     40.20840691
      4.68000000	    -24.41104794	    -16.03533682	     40.44654125
      4.70000000	    -23.75968099	    -16.91997574	     40.67982533
      4.72000000	    -23.10524282	    -17.80358964	     40.90901265
      4.74000000	    -22.45209219	    -18.68019297	     41.13248333
      4.76000000	    -21.79776903	    -19.55300770	     41.35099108
      4.78000000	    -21.14208254	    -20.42217757	     41.56449045
      4.80000000	    -20.48254543	    -21.29085373	     41.77364245
      4.82000000	    -19.82354027	    -22.15314256	     41.97694009
      4.84000000	    -19.16257778	    -23.01220222	     42.17504542
      4.86000000	    -18.49945235	    -23.86816668	     42.36788723
      4.88000000	    -17.83163010	    -24.72413516	     42.55602867
      4.90000000	    -17.16353257	    -25.57429458	     42.73808085
      4.92000000	    -16.49262326	    -26.42175129	     42.91461034
      4.94000000	    -15.81867435	    -27.26663365	     43.08551873
      4.96000000	    -15.13908507	    -28.11200038	     43.25126253
      4.98000000	    -14.45833191	    -28.95210848	     43.41057857
      5.00000000	    -13.77381009	    -29.79002424	     43.56392707
      5.02000000	    -13.08526065	    -30.62587462	     43.71118257
      5.04000000	    -12.39243881	    -31.45979419	     43.85244277
      5.06000000	    -11.69256356	    -32.29478154	     43.98737815
      5.08000000	    -10.99025956	    -33.12519180	     44.11546803
      5.10000000	    -10.28279175	    -33.95405012	     44.23682992
      5.12000000	     -9.56981883	    -34.78148693	     44.35133665
      5.14000000	     -8.84852415	    -35.61050013	     44.45905733
      5.16000000	     -8.12357370	    -36.43548198	     44.55921530
      5.18000000	     -7.39203508	    -37.25944857	     44.65144520
      5.20000000	     -6.65361921	    -38.08253560	     44.73611762
      5.22000000	     -5.90528430	    -38.90774519	     44.81302678
      5.24000000	     -5.15177938	    -39.72950412	     44.88124728
      5.26000000	     -4.39009596	    -40.55082170	     44.94087633
      5.28000000	     -3.61975120	    -41.37185952	     44.99155472
      5.30000000	     -2.83752046	    -42.19563633	     45.03310859
      5.32000000	     -2.04830350	    -43.01659997	     45.06488034
      5.34000000	     -1.24882138	    -43.83778853	     45.08654565
      5.36000000	     -0.43849170	    -44.65938257	     45.09779457
      5.38000000	      0.38329448	    -45.48155003	     45.09821969
      5.40000000	      1.22019170	    -46.30738858	     45.08715993
      5.42000000	      2.06710011	    -47.13136362	     45.06424319
      5.44000000	      2.92767331	    -47.95655764	     45.02885511
      5.46000000	      3.80278434	    -48.78321199	     44.98025246
      5.48000000	      4.69644017	    -49.61446563	     44.91772479
      5.50000000	      5.60334025	    -50.44480370	     44.84134166
      5.52000000	      6.52767973	    -51.27740230	     44.74969788
      5.54000000	      7.47066506	    -52.11256626	     44.64158165
      5.56000000	      8.43668304	    -52.95353401	     44.51679612
      5.58000000	      9.42059854	    -53.79484242	     44.37411777
      5.60000000	     10.42710900	    -54.63978402	     44.21246747
      5.62000000	     11.45780903	    -55.48877811	     44.03068176
      5.64000000	     12.51444918	    -56.34228338	     43.82747624
      5.66000000	     13.60278689	    -57.20380445	     43.60060445
      5.68000000	     14.71740075	    -58.06791629	     43.35007062
      5.70000000	     15.86438270	    -58.93821757	     43.07338819
      5.72000000	     17.04636444	    -59.81539515	     42.76861992
      5.74000000	     18.27061125	    -60.70331581	     42.43237316
      5.76000000	     19.53194457	    -61.59668364	     42.06452679
      5.78000000	     20.83829753	    -62.49955205	     41.66117019
      5.80000000	     22.19411309	    -63.41306958	     41.21846796
      5.82000000	     23.60874946	    -64.34169131	     40.73286605
      5.84000000	     25.07852308	    -65.28054652	     40.20181581
      5.86000000	     26.61452662	    -66.23454967	     39.61978827
      5.88000000	     28.22443000	    -67.20576865	     38.98107982
      5.90000000	     29.92317322	    -68.20013182	     38.27694881
      5.92000000	     31.71007859	    -69.21375548	     37.50360721
      5.94000000	     33.60436566	    -70.25379154	     36.64842207
      5.96000000	     33.43073676	    -70.55903981	     37.12838601
      5.98000000	     33.24624927	    -70.85851357	     37.61228290
      6.00000000	     33.03888430	    -71.15090544	     38.11218686
      6.02000000	     32.11872716	    -71.06063559	     38.94190757
      6.04000000	     30.52449960	    -70.59338516	     40.06895131
      6.06000000	     28.95082102	    -70.12551035	     41.17468849
      6.08000000	     28.32327943	    -69.76488870	     41.44161227
      6.10000000	     24.73473397	    -67.61770531	     42.88297207
      6.12000000	     21.52583656	    -65.56645394	     44.04061609
      6.14000000	     18.60385131	    -63.58153642	     44.97773249
      6.16000000	     15.91629725	    -61.65044963	     45.73416552
      6.18000000	     13.42442549	    -59.76461166	     46.34029150
      6.20000000	     11.08792674	    -57.90916209	     46.82132285
      6.22000000	      8.88933496	    -56.08336911	     47.19405634
      6.24000000	      6.80150698	    -54.27586644	     47.47436976
      6.26000000	      4.81198739	    -52.48524780	     47.67331175
      6.28000000	      2.91057510	    -50.71075598	     47.80023532
      6.30000000	      1.07983994	    -48.94349227	     47.86470134
      6.32000000	     -0.68579891	    -47.18376086	     47.86991266
      6.34000000	     -2.39194730	    -45.43207553	     47.82420262
      6.36000000	     -4.05082905	    -43.68068916	     47.73155546
      6.38000000	     -5.66558260	    -41.93056831	     47.59615428
      6.40000000	     -7.23878942	    -40.18292238	     47.42189221
      6.42000000	     -8.77995545	    -38.43055946	     47.21052594
      6.44000000	    -10.28822288	    -36.67768760	     46.96588092
      6.46000000	    -11.77205493	    -34.91723830	     46.68924162
      6.48000000	    -13.23217070	    -33.15076566	     46.38264554
      6.50000000	    -14.66925845	    -31.37992027	     46.04913891
      6.52000000	    -16.09059889	    -29.59765897	     45.68814276
      6.54000000	    -17.49632499	    -27.80565090	     45.30171365
      6.56000000	    -18.88646791	    -26.00561816	     44.89161052
      6.58000000	    -20.26770542	    -24.19045685	     44.45746361
      6.60000000	    -21.63979798	    -22.36184267	     44.00091332
      6.62000000	    -23.00247195	    -20.52150988	     43.52370212
      6.64000000	    -24.36191709	    -18.66213725	     43.02404862
      6.66000000	    -25.71543015	    -16.78838855	     42.50343512
      6.68000000	    -27.06928734	    -14.89273385	     41.96196095
      6.70000000	    -28.42285794	    -12.97666900	     41.39937079
      6.72000000	    -29.77568326	    -11.04174739	     40.81742464
      6.74000000	    -31.13382677	     -9.07995019	     40.21376696
      6.76000000	    -32.49680727	     -7.09255549	     39.58934799
      6.78000000	    -33.86413700	     -5.08086768	     38.94498442
      6.80000000	    -35.24208163	     -3.03615353	     38.27820845
      6.82000000	    -36.63030220	     -0.95929882	     37.58956734
      6.84000000	    -38.02849475	      1.14883406	     36.87961994
      6.86000000	    -39.44333534	      3.29799901	     36.14528874
      6.88000000	    -40.87248526	      5.48438566	     35.38804711
      6.90000000	    -42.32307999	      7.71870426	     34.60432151
      6.92000000	    -43.79552222	     10.00145725	     33.79401506
      6.94000000	    -45.29037117	     12.33337390	     32.95696015
      6.96000000	    -46.81588884	     14.72729321	     32.08857938
      6.98000000	    -46.80591710	     15.08731677	     31.71858967
      7.00000000	    -46.80120839	     15.45188872	     31.34930701
      7.02000000	    -46.79867770	     15.82065665	     30.97800718
      7.04000000	    -46.54354804	     15.79305130	     30.74963730
      7.06000000	    -46.03575458	     15.36932794	     30.66612268
      7.08000000	    -45.52785643	     14.95006822	     30.57747893
      7.10000000	    -45.27301530	     14.55457583	     30.71847079
      7.12000000	    -44.54613046	     13.42882894	     31.11794140
      7.14000000	    -43.82558792	     12.31639360	     31.50987286
      7.16000000	    -43.10857939	     11.21286364	     31.89649673
      7.18000000	    -42.39971516	     10.12534591	     32.27523658
      7.20000000	    -41.69615550	      9.04946722	     32.64764466
      7.22000000	    -40.99757385	      7.98473940	     33.01385067
      7.24000000	    -40.30125223	      6.92704894	     33.37524723
      7.26000000	    -39.61173161	      5.88330724	     33.72945214
      7.28000000	    -38.92630797	      4.84941522	     34.07788033
      7.30000000	    -38.24471394	      3.82498706	     34.42065418
      7.32000000	    -37.56433650	      2.80613511	     34.75905527
      7.34000000	    -36.88965361	      1.79958744	     35.09084204
      7.36000000	    -36.21800294	      0.80146243	     35.41656784
      7.38000000	    -35.54927214	     -0.18855446	     35.73784958
      7.40000000	    -34.88085862	     -1.17416940	     36.05504717
      7.42000000	    -34.21718682	     -2.14882267	     36.36602558
      7.44000000	    -33.55572049	     -3.11622120	     36.67195503
      7.46000000	    -32.89625399	     -4.07662429	     36.97288929
      7.48000000	    -32.23858629	     -5.03028013	     37.26887550
      7.50000000	    -31.58023707	     -5.98071570	     37.56096014
      7.52000000	    -30.92558428	     -6.92155974	     37.84715026
      7.54000000	    -30.27216377	     -7.85634122	     38.12871050
      7.56000000	    -29.61975689	     -8.78527447	     38.40521455
      7.58000000	    -28.96592529	     -9.71176882	     38.67785513
      7.60000000	    -28.31502619	    -10.62958683	     38.94476370
      7.62000000	    -27.66460454	    -11.54214474	     39.20689102
      7.64000000	    -27.01447904	    -12.44962564	     39.46424192
      7.66000000	    -26.36220346	    -13.35534345	     39.71768051
      7.68000000	    -25.71212690	    -14.25318072	     39.96544777
      7.70000000	    -25.06180226	    -15.14645778	     40.20840691
      7.72000000	    -24.41104794	    -16.03533682	     40.44654125
      7.74000000	    -23.75968099	    -16.91997574	     40.67982533
      7.76000000	    -23.10524282	    -17.80358964	     40.90901265
      7.78000000	    -22.45209219	    -18.68019297	     41.13248333
      7.80000000	    -21.79776903	    -19.55300770	     41.35099108
      7.82000000	    -21.14208254	    -20.42217757	     41.56449045
      7.84000000	    -20.48254543	    -21.29085373	     41.77364245
      7.86000000	    -19.82354027	    -22.15314256	     41.97694009
      7.88000000	    -19.16257778	    -23.01220222	     42.17504542
      7.90000000	    -18.49945235	    -23.86816668	     42.36788723
      7.92000000	    -17.83163010	    -24.72413516	     42.55602867
      7.94000000	    -17.16353257	    -25.57429458	     42.73808085
      7.96000000	    -16.49262326	    -26.42175129	     42.91461034
      7.98000000	    -15.81867435	    -27.26663365	     43.08551873
      8.00000000	    -15.13908507	    -28.11200038	     43.25126253
